<svg width="24" height="24" viewBox="0 0 24 24" fill="none" xmlns="http://www.w3.org/2000/svg">
<path d="M15 8C15 5.23858 12.7614 3 10 3C7.23858 3 5 5.23858 5 8C5 10.7614 7.23858 13 10 13C12.7614 13 15 10.7614 15 8Z" stroke="url(#paint0_linear_182_1743)" stroke-width="1.5" stroke-linecap="round" stroke-linejoin="round"/>
<path d="M17.5 21V14M14 17.5H21" stroke="url(#paint1_linear_182_1743)" stroke-width="1.5" stroke-linecap="round" stroke-linejoin="round"/>
<path d="M3 20C3 16.134 6.13401 13 10 13C11.4872 13 12.8662 13.4638 14 14.2547" stroke="url(#paint2_linear_182_1743)" stroke-width="1.5" stroke-linecap="round" stroke-linejoin="round"/>
<defs>
<linearGradient id="paint0_linear_182_1743" x1="15" y1="3" x2="3.08759" y2="6.51052" gradientUnits="userSpaceOnUse">
<stop stop-color="#1264FF"/>
<stop offset="0.5" stop-color="#0A4CEB"/>
<stop offset="1" stop-color="#0F3EBE"/>
</linearGradient>
<linearGradient id="paint1_linear_182_1743" x1="21" y1="14" x2="12.6613" y2="16.4574" gradientUnits="userSpaceOnUse">
<stop stop-color="#1264FF"/>
<stop offset="0.5" stop-color="#0A4CEB"/>
<stop offset="1" stop-color="#0F3EBE"/>
</linearGradient>
<linearGradient id="paint2_linear_182_1743" x1="14" y1="13" x2="2.27321" y2="18.4306" gradientUnits="userSpaceOnUse">
<stop stop-color="#1264FF"/>
<stop offset="0.5" stop-color="#0A4CEB"/>
<stop offset="1" stop-color="#0F3EBE"/>
</linearGradient>
</defs>
</svg>
